<?xml version="1.0" encoding="UTF-8"?>
<svg id="Layer_1" data-name="Layer 1" xmlns="http://www.w3.org/2000/svg" viewBox="0 0 1280 313.43">
  <defs>
    <style>
      .cls-1 {
        fill: #f08826;
      }

      .cls-2 {
        fill: #575650;
      }

      .cls-3 {
        fill: #ce5f27;
      }
    </style>
  </defs>
  <g>
    <g>
      <path class="cls-1" d="M1251.08,133.18l-104.25-104.25c-5.57-5.6-13.15-8.82-20.78-8.82-6.84,0-13.15,2.56-17.77,7.19l-107.55,107.55c-4.63,4.62-7.19,10.91-7.19,17.73,0,7.61,3.21,15.19,8.82,20.8l111.98,112.03,6.21-6.21-111.98-112.03c-3.98-3.98-6.26-9.3-6.25-14.59,0-4.47,1.64-8.56,4.62-11.53l107.56-107.56c2.96-2.98,7.07-4.61,11.55-4.61,5.32,0,10.62,2.27,14.56,6.24l104.27,104.26c3.83,3.82,6.04,8.75,6.21,13.91.17,4.74-1.46,9.07-4.59,12.19l-81.75,81.75c.04.12.08.25.08.39v11.94l87.87-87.88c4.88-4.86,7.43-11.51,7.17-18.71-.25-7.39-3.37-14.43-8.79-19.82Z"/>
      <path class="cls-1" d="M1265.32,118.96l-104.29-104.25c-9.37-9.35-22.12-14.72-34.99-14.72-12.17,0-23.53,4.64-31.99,13.07l-107.55,107.55c-8.75,8.76-13.39,20.58-13.04,33.29.34,12.62,5.55,24.6,14.68,33.71l72.04,72.07,6.21-6.21-72.04-72.07c-7.53-7.52-11.83-17.37-12.11-27.74-.27-10.28,3.45-19.81,10.47-26.85l107.55-107.55c6.8-6.77,15.95-10.5,25.78-10.5,10.56,0,21.04,4.43,28.78,12.15l104.28,104.24c7.44,7.47,11.74,17.22,12.08,27.44.37,10.41-3.34,20.04-10.47,27.14l-124.68,124.69,6.21,6.21,124.67-124.68c8.88-8.83,13.51-20.79,13.05-33.66-.43-12.44-5.63-24.28-14.65-33.34Z"/>
    </g>
    <path class="cls-1" d="M1085.27,250.14c-1.72,1.72-1.72,4.5,0,6.21l29.4,29.4c1.72,1.72,4.5,1.72,6.21,0h0c1.72-1.72,1.72-4.5,0-6.21l-29.4-29.4c-1.72-1.72-4.5-1.72-6.21,0h0Z"/>
    <g>
      <path class="cls-3" d="M1113.98,158.16l8.29,10.2v-24.36l-8.56-2.3v16.29c.09.05.18.1.27.18Z"/>
      <path class="cls-3" d="M1122.27,220.42v-24.34l-8.56-5.71v21.44c2.84,2.88,5.7,5.74,8.56,8.61Z"/>
      <path class="cls-3" d="M1122.27,284.31v-35.32c-2.85-2.85-5.71-2.41-8.56-5.26v38.01"/>
      <path class="cls-3" d="M1141.67,167.66v-26.91c-1.15.56-2.44.94-3.96.94l-4.6,2.3v23.78c2.75-2.08,5.93,2.17,8.56-.11Z"/>
      <path class="cls-3" d="M1141.67,216.59v-25.86c-2.77,2.38-5.61,3.31-8.56,5.45v24.36c2.82-2.21,5.65-1.86,8.56-3.95Z"/>
      <path class="cls-3" d="M1133.45,248.87c-.11.08-.23.09-.34.15v60.77l8.56,1.32v-68.75c-2.72,2.19-5.36,4.48-8.22,6.51Z"/>
    </g>
    <path class="cls-3" d="M1212.15,168.35c-2.32-5.6-7.98-9.51-13.74-9.51-3.63,0-7.01,1.47-9.78,4.24l-46.93,46.9v12.1l52.98-52.95c1.15-1.15,2.4-1.73,3.73-1.73,2.32,0,4.83,1.82,5.84,4.23.87,2.1.43,4.05-1.3,5.79l-61.25,61.24v11.93c.36-.3.74-.56,1.08-.91l66.23-66.21c4.16-4.17,5.33-9.83,3.14-15.11Z"/>
    <path class="cls-3" d="M1197.51,130.06c-2.32-5.6-7.98-9.51-13.74-9.51-3.63,0-7.01,1.46-9.79,4.23l-32.28,32.27v12.1l38.33-38.32c1.15-1.15,2.42-1.73,3.75-1.73,2.33,0,4.84,1.82,5.84,4.23.87,2.1.43,4.05-1.3,5.79l-46.61,46.6v11.93c.36-.3.74-.56,1.08-.91l51.58-51.58c4.17-4.17,5.35-9.82,3.15-15.11Z"/>
    <path class="cls-3" d="M1117.08,242.09l-62.47-62.47c-1.73-1.73-2.17-3.68-1.3-5.79,1-2.41,3.52-4.23,5.85-4.23,1.33,0,2.59.59,3.75,1.73l48.98,48.97,5.2-6.9-48.13-48.12c-2.78-2.77-6.17-4.24-9.8-4.24-5.78,0-11.43,3.91-13.76,9.51-2.19,5.29-1.02,10.94,3.15,15.12l65.09,65.08c1.06,1.06,2.23,1.86,3.44,2.53v-11.19Z"/>
    <path class="cls-3" d="M1117.08,189.21l-47.83-47.83c-1.73-1.73-2.17-3.67-1.3-5.77,1-2.42,3.52-4.24,5.86-4.24,1.33,0,2.59.59,3.74,1.73l35.27,35.28,4.26-7.84-33.48-33.49c-2.78-2.77-6.16-4.23-9.79-4.23-5.79,0-11.44,3.92-13.77,9.53-2.19,5.28-1.01,10.93,3.16,15.1l50.45,50.45c1.06,1.06,2.23,1.86,3.44,2.53v-11.19Z"/>
    <path class="cls-3" d="M1179.68,95.8c-2.32-5.6-7.98-9.51-13.74-9.51-3.63,0-7.01,1.47-9.78,4.24l-17.17,17.15c-.16.15-.33.33-.51.51l-1.55,1.54h0c-2.24,2.25-5.03,5.04-13.75,13.77,3.16-.83,6.9.32,8.95,2.77.06.08.07.17.13.24,6.01-6.03,8.15-8.25,10.55-10.93.43-.19.78-.44,1.27-.9h0s.59-.59.59-.59c.11-.1.22-.21.33-.33l17.21-17.18c3.15-3.15,8-1.29,9.56,2.5.87,2.1.43,4.05-1.3,5.78-14.53,14.53-16.05,16.04-17.57,17.56l-1.48,1.48c-.38.37-.79.79-1.26,1.26l-10.04,10.04c.9,1.34,1.57,2.89,1.57,4.85v5.69l16.07-16.07-.09-.2c3.74-3.43,9.51-9.2,18.86-18.55,4.16-4.18,5.33-9.83,3.14-15.11Z"/>
    <path class="cls-3" d="M1106.59,126.53l-20.53-20.54c-1.74-1.74-2.19-3.69-1.32-5.79,1.56-3.78,6.43-5.64,9.59-2.49l16.55,16.55h0s1.48,1.47,1.48,1.47l.31.04c2.53,2.77,3.19,3.48,10.06,10.35.86-3.45,7.3-1.5,10.45-1.65-11.03-11.03-15.05-15.05-16.27-16.27h0s-1.91-1.91-1.91-1.91l-.25.02c-3.28-3.58-4.37-4.67-14.36-14.66-2.78-2.77-6.17-4.23-9.8-4.23-5.78,0-11.43,3.91-13.75,9.51-2.19,5.28-1,10.93,3.18,15.11l21.66,21.68h0s15.41,15.44,15.41,15.44v-5.71c0-2.05.71-3.53,1.67-4.73l-10.88-10.9c-.33-.41-.76-.88-1.29-1.29Z"/>
    <path class="cls-3" d="M1134.36,147.02c1.67,1.67,4.38,1.67,6.06,0l25.07-25.07c1.67-1.67,1.67-4.38,0-6.06h0c-1.67-1.67-4.38-1.67-6.06,0l-25.07,25.07c-1.67,1.67-1.67,4.38,0,6.06h0Z"/>
    <path class="cls-3" d="M1134.36,170.49c1.67,1.67,4.38,1.67,6.06,0l25.07-25.07c1.67-1.67,1.67-4.38,0-6.06h0c-1.67-1.67-4.38-1.67-6.06,0l-25.07,25.07c-1.67,1.67-1.67,4.38,0,6.06h0Z"/>
    <path class="cls-3" d="M1134.36,199.11c1.67,1.67,4.38,1.67,6.06,0l25.07-25.07c1.67-1.67,1.67-4.38,0-6.06h0c-1.67-1.67-4.38-1.67-6.06,0l-25.07,25.07c-1.67,1.67-1.67,4.38,0,6.06h0Z"/>
    <path class="cls-3" d="M1134.36,223.38c1.67,1.67,4.38,1.67,6.06,0l25.07-25.07c1.67-1.67,1.67-4.38,0-6.06h0c-1.67-1.67-4.38-1.67-6.06,0l-25.07,25.07c-1.67,1.67-1.67,4.38,0,6.06h0Z"/>
    <path class="cls-3" d="M1134.36,252.02c1.67,1.67,4.38,1.67,6.06,0l25.07-25.07c1.67-1.67,1.67-4.38,0-6.06h0c-1.67-1.67-4.38-1.67-6.06,0l-25.07,25.07c-1.67,1.67-1.67,4.38,0,6.06h0Z"/>
    <path class="cls-3" d="M1121.02,147.02c-1.67,1.67-4.38,1.67-6.06,0l-23.94-23.94c-1.67-1.67-1.67-4.38,0-6.06h0c1.67-1.67,4.38-1.67,6.06,0l23.94,23.94c1.67,1.67,1.67,4.38,0,6.06h0Z"/>
    <path class="cls-3" d="M1121.02,170.49c-1.67,1.67-4.38,1.67-6.06,0l-23.94-23.94c-1.67-1.67-1.67-4.38,0-6.06h0c1.67-1.67,4.38-1.67,6.06,0l23.94,23.94c1.67,1.67,1.67,4.38,0,6.06h0Z"/>
    <path class="cls-3" d="M1121.02,199.11c-1.67,1.67-4.38,1.67-6.06,0l-23.94-23.94c-1.67-1.67-1.67-4.38,0-6.06h0c1.67-1.67,4.38-1.67,6.06,0l23.94,23.94c1.67,1.67,1.67,4.38,0,6.06h0Z"/>
    <path class="cls-3" d="M1121.02,223.38c-1.67,1.67-4.38,1.67-6.06,0l-23.94-23.94c-1.67-1.67-1.67-4.38,0-6.06h0c1.67-1.67,4.38-1.67,6.06,0l23.94,23.94c1.67,1.67,1.67,4.38,0,6.06h0Z"/>
    <path class="cls-3" d="M1121.02,252.02c-1.67,1.67-4.38,1.67-6.06,0l-23.94-23.94c-1.67-1.67-1.67-4.38,0-6.06h0c1.67-1.67,4.38-1.67,6.06,0l23.94,23.94c1.67,1.67,1.67,4.38,0,6.06h0Z"/>
    <path class="cls-3" d="M1125.14,127.61c1.67,1.67,4.38,1.67,6.06,0l25.07-25.07c1.67-1.67,1.67-4.38,0-6.06h0c-1.67-1.67-.8-5.26-2.47-3.59l-28.66,28.66c-1.67,1.67-1.67,4.38,0,6.06h0Z"/>
    <path class="cls-3" d="M1130.27,127.61c1.67-1.67,1.67-4.38,0-6.06l-23.94-23.94c-1.67-1.67-4.38-1.67-6.06,0h0c-1.67,1.67-1.67,4.38,0,6.06l23.94,23.94c1.67,1.67,4.38,1.67,6.06,0h0Z"/>
    <path class="cls-3" d="M1121.02,147.02c1.67-1.67,1.67-4.38,0-6.06l-23.94-23.94c-1.67-1.67-4.38-1.67-6.06,0h0c-1.67,1.67-1.67,4.38,0,6.06l23.94,23.94c1.67,1.67,4.38,1.67,6.06,0h0Z"/>
    <path class="cls-1" d="M1134.56,312.14c1.72,1.72,4.5,1.72,6.21,0l29.4-29.4c1.72-1.72,1.72-4.5,0-6.21h0c-1.72-1.72-4.5-1.72-6.21,0l-29.4,29.4c-1.72,1.72-1.72,4.5,0,6.21h0Z"/>
    <path class="cls-1" d="M1152.05,266.18c1.72,1.72,4.5,1.72,6.21,0l29.4-29.4c1.72-1.72,1.72-4.5,0-6.21h0c-1.72-1.72-4.5-1.72-6.21,0l-29.4,29.4c-1.72,1.72-1.72,4.5,0,6.21h0Z"/>
    <path class="cls-1" d="M1031.9,225.19c-1.72,1.72-1.72,4.5,0,6.21l29.4,29.4c1.72,1.72,4.5,1.72,6.21,0h0c1.72-1.72,1.72-4.5,0-6.21l-29.4-29.4c-1.72-1.72-4.5-1.72-6.21,0h0Z"/>
    <path class="cls-3" d="M1113.71,251.19v32.17c0,2.4,1.91,4.34,4.28,4.34s4.28-1.94,4.28-4.34v-32.17h-8.55Z"/>
  </g>
  <g>
    <path class="cls-2" d="M120.16,116.56h7.84c7.62,0,13.86-1.62,18.54-4.83,6.58,3.16,14.37,4.69,24.47,4.83h4.42c7.54,0,13.73-1.63,18.41-4.83,6.72,3.16,14.6,4.7,24.75,4.83,7.54,0,13.73-1.63,18.41-4.83,6.71,3.16,14.55,4.7,24.6,4.83h4.87l75.61-.02,2.97-10.99h-5.35c.54-3.74.82-7.65.82-11.66,0-35.67-24.95-54.92-48.43-54.92-8.29,0-14.98,1.9-20.47,5.82l-1.93,1.38,5.02,10.03,2.64-1.89c1.28-.91,6.05-3.9,13.56-3.9,20.66,0,35.08,17.88,35.08,43.48,0,4.31-.22,8.14-.66,11.66l-63.72.02c-7.05,0-10.75-.84-14.46-2.31v-60.19l-13.5,2.5v46.43c0,6.19-2.61,13.58-15.05,13.58h-2.59c-5.53-.12-8.69-.93-12.02-2.29v-55.94l-13.5,2.5v42.16c0,6.56-3.95,13.58-15.05,13.58h-4.42c-7.05,0-10.75-.84-14.46-2.31v-51.36l-13.5,2.5v36.27c0,9.89-5.06,14.9-15.05,14.9h-7.84c-7.05,0-10.75-.84-14.46-2.31V2.41l-13.5,2.5v104.93l1.44.79c7.4,4.05,15.82,5.94,26.52,5.94Z"/>
    <path class="cls-2" d="M27.96,132.77h26.22c21.05,0,28.55-13.15,28.55-25.46v-56.15l-13.5,2.5v53.21c0,10.03-4.92,14.9-15.05,14.9h-26.22c-7.05,0-10.75-.84-14.46-2.31v-61.22l-13.5,2.5v65.31l1.44.79c7.14,3.91,15.56,5.8,26.52,5.94Z"/>
    <polygon class="cls-2" points="52.18 51.97 42.49 39.97 30.54 49.85 40.23 61.62 52.18 51.97"/>
    <path class="cls-2" d="M389.56,116.55c21.05,0,28.55-13.15,28.55-25.45V2.39l-13.5,2.5v85.76c0,10.03-4.92,14.9-15.05,14.9h-7.87c3-3.82,4.75-9.07,4.75-14.46V6.81l-13.5,2.5v81.34c0,6.8-2.61,14.9-15.05,14.9h-9.86l4.46,10.99h37.07Z"/>
    <path class="cls-2" d="M356.88,147.05h21.55l1.05-8.15h-7.03c-3.01,0-3.17-3.67-3.17-4.4,0-1.8.46-2.72,1.37-2.72.81,0,1.42.28,2.28.79l2.12,1.27,3.13-5.97-1.07-1.21c-.93-1.05-3.02-2.81-6.57-2.81-6.99,0-10.75,5.89-10.75,11.43,0,1.27.19,2.48.57,3.62h-1.11l-2.37,8.15Z"/>
    <polygon class="cls-2" points="445.99 2.39 432.5 4.89 432.5 116.55 445.99 116.55 445.99 2.39"/>
    <path class="cls-2" d="M502.42,116.17h17.02v.09h13.56v-.03l44.22.02c.08,0,.16,0,.32-.02,7.41-.05,13.49-1.67,18.09-4.82,6.19,2.92,13.33,4.44,22.35,4.76v.1h162.71c4.12,0,7.83-.77,11.14-2.18v2.18l123.85-.02,2.97-10.99h-5.35c.54-3.74.82-7.65.82-11.66,0-35.67-24.95-54.92-48.43-54.92-8.29,0-14.98,1.9-20.46,5.82l-1.93,1.38,5.02,10.03,2.64-1.89c1.28-.92,6.05-3.9,13.56-3.9,20.66,0,35.08,17.88,35.08,43.48,0,4.31-.22,8.14-.66,11.66h-96.42c4.76-6.83,7.31-16.69,7.31-29.17,0-26.01-10.4-40.33-29.28-40.33s-29.14,14.32-29.14,40.33c0,12.56,2.42,22.37,7.19,29.19h-75.86v-.36c-9.63-.78-14.34-10.26-14.34-28.97,0-19.76,5.26-29.78,15.64-29.78s15.69,9.86,15.78,29.29h13.5c-.09-25.78-10.42-39.99-29.13-39.99s-29.28,14.32-29.28,40.33c0,12.67,2.63,22.63,7.53,29.47h-16.31v-.02h-25.89c-7.05,0-10.75-.85-14.46-2.32v-60.19l-13.5,2.5v46.43c0,6.12-2.56,13.43-14.73,13.56h-44.54v-29.53c-.09-25.78-10.42-39.99-29.13-39.99s-29.28,14.32-29.28,40.33,10.14,39.43,27.83,40.12ZM780.7,46.46c10.38,0,15.64,10.02,15.64,29.78s-5.12,29.04-15.64,29.04c-14.25,0-15.79-20.31-15.79-29.04,0-19.76,5.31-29.78,15.79-29.78ZM503.73,46.42c10.39,0,15.69,9.86,15.78,29.29h-.06v29.46h-17.02c-9.63-.78-14.34-10.26-14.34-28.97,0-19.76,5.26-29.78,15.64-29.78Z"/>
    <polygon class="cls-2" points="876.56 145.99 888.51 136.33 878.82 124.34 866.87 134.22 876.56 145.99"/>
    <polygon class="cls-2" points="579.37 124.34 567.42 134.22 577.11 145.99 587.39 137.68 594.22 145.99 606.18 136.33 596.49 124.34 586.23 132.82 579.37 124.34"/>
    <polygon class="cls-2" points="504.3 22.58 511.14 30.89 523.09 21.23 513.4 9.24 503.14 17.72 496.29 9.24 484.33 19.12 494.02 30.89 504.3 22.58"/>
    <path class="cls-2" d="M664.5,182.54c-11.37,0-17.63,8.67-17.63,24.4,0,7.6,1.46,13.54,4.35,17.66h-80c-4.27,0-6.51-.51-8.75-1.4v-61.02l-8.17,1.51v63.49l.87.48c3.27,1.79,6.88,2.86,11.1,3.32v.27h98.31c11.2,0,17.63-8.86,17.63-24.32s-6.29-24.4-17.72-24.4ZM664.58,224.61c-8.62,0-9.55-12.29-9.55-17.57,0-11.96,3.21-18.02,9.55-18.02s9.46,6.06,9.46,18.02-3.1,17.57-9.46,17.57Z"/>
    <path class="cls-2" d="M528.65,231.26c12.74,0,17.28-7.96,17.28-15.4v-24.16l-8.17,1.51v22.39c0,6.07-2.98,9.02-9.11,9.02h-37.14c-4.26,0-6.51-.51-8.75-1.4v-27.24l-8.17,1.51v29.71l.87.48c4.32,2.37,9.41,3.51,16.05,3.59h37.14Z"/>
    <polygon class="cls-2" points="816.14 181.04 823.37 175.2 817.51 167.94 810.28 173.92 816.14 181.04"/>
    <polygon class="cls-2" points="378.49 242.93 372.62 235.67 365.39 241.65 371.25 248.77 378.49 242.93"/>
    <path class="cls-2" d="M910.49,163.7h0v51.89c0,5.2-2.32,8.16-6.89,8.85-.69.1-1.42.15-2.22.15h-11.15c1.82-2.31,2.87-5.49,2.87-8.75v-51l-8.17,1.51v49.22c0,4.11-1.58,9.02-9.11,9.02h-33.41.04s-5.18,0-5.18,0c.33-2.26.5-4.63.5-7.06,0-21.58-15.1-33.23-29.31-33.23-5.02,0-9.07,1.15-12.38,3.52l-1.17.83,3.03,6.07,1.6-1.14c.78-.55,3.66-2.36,8.21-2.36,12.5,0,21.23,10.82,21.23,26.31,0,2.61-.13,4.93-.4,7.06h-89.12v-15.87c0-12.74-7.96-17.28-15.4-17.28h-26.71l1.51,8.17h24.93c6.07,0,9.02,2.98,9.02,9.11v15.86h-43.05s0,6.63,0,6.63l53.01.03h158.61c12.74,0,17.28-7.96,17.28-15.4h0v-53.67h0s-8.17,1.5-8.17,1.5h0Z"/>
    <path class="cls-2" d="M382.53,217.54c0-21.58-15.1-33.23-29.3-33.23-5.01,0-9.06,1.15-12.38,3.52l-1.17.83,3.03,6.07,1.6-1.14c.78-.55,3.66-2.36,8.21-2.36,12.5,0,21.23,10.82,21.23,26.31,0,2.61-.13,4.93-.4,7.06h-55.98c-4.26,0-6.51-.5-8.75-1.39v-36.42l-8.17,1.51v28.09c0,3.75-1.58,8.21-9.11,8.21h-43.5c2.88-4.14,4.43-10.11,4.43-17.66,0-15.74-6.29-24.4-17.72-24.4s-17.63,8.67-17.63,24.4c0,7.6,1.46,13.54,4.35,17.66h-52.12c-4.27,0-6.51-.51-8.75-1.4v-61.02l-8.17,1.51v63.49l.87.48c4.48,2.45,9.57,3.59,16.05,3.59h122.19s8.31-.98,11.14-2.93c4.06,1.91,8.8,2.84,14.89,2.93h66.12s1.8-6.66,1.8-6.66h-3.24c.33-2.26.49-4.63.49-7.06ZM225.08,207.03c0-11.96,3.21-18.02,9.55-18.02s9.46,6.06,9.46,18.02-3.1,17.57-9.46,17.57c-8.62,0-9.55-12.29-9.55-17.57Z"/>
    <path class="cls-2" d="M429.48,215.85v-53.67l-8.17,1.51v51.89c0,6.07-2.98,9.02-9.11,9.02h-4.76c1.82-2.31,2.87-5.49,2.87-8.75v-51l-8.17,1.51v49.22c0,4.11-1.58,9.02-9.11,9.02h-5.96l2.7,6.65h22.43c12.74,0,17.27-7.96,17.27-15.4Z"/>
    <polygon class="cls-2" points="438.19 231.25 446.35 231.25 446.35 162.17 438.19 163.69 438.19 231.25"/>
    <polygon class="cls-2" points="511.76 190.27 507.61 185.14 500.38 191.12 506.24 198.24 512.46 193.22 516.6 198.24 523.83 192.4 517.97 185.14 511.76 190.27"/>
    <polygon class="cls-2" points="300.7 166.33 293.47 172.31 299.33 179.43 305.55 174.41 309.68 179.43 316.92 173.59 311.05 166.33 304.85 171.46 300.7 166.33"/>
    <polygon class="cls-2" points="83.95 242.82 79.8 237.69 72.57 243.67 78.43 250.79 84.65 245.76 88.79 250.79 96.02 244.95 90.16 237.69 83.95 242.82"/>
    <path class="cls-2" d="M139.61,231.26v-6.66h-18.51v-.06c-5.83-.47-8.67-6.21-8.67-17.53,0-11.96,3.18-18.02,9.46-18.02s9.49,5.97,9.55,17.72h8.17c-.06-15.6-6.31-24.2-17.63-24.2s-17.72,8.67-17.72,24.4c0,7.56,1.54,13.54,4.43,17.67h-9.31c-4.26,0-6.51-.51-8.75-1.4v-36.42l-8.17,1.51v28.09c0,3.7-1.55,8.13-8.91,8.21h-37.76v-17.87c-.06-15.6-6.31-24.2-17.63-24.2S.45,191.18.45,206.92s6.13,23.91,16.84,24.33h18.51v-.02h37.57c.05.01.1,0,.2,0,4.48-.03,8.16-1.01,10.94-2.91,3.75,1.77,8.07,2.69,13.53,2.88v.06h41.59ZM17.29,224.59c-5.83-.47-8.67-6.26-8.67-17.58,0-11.96,3.18-18.02,9.46-18.02s9.49,5.97,9.55,17.72h-.04v17.88h-10.3Z"/>
    <polygon class="cls-2" points="17.72 173.08 13.57 167.94 6.34 173.92 12.2 181.04 18.42 176.02 22.56 181.04 29.79 175.2 23.93 167.94 17.72 173.08"/>
    <polygon class="cls-2" points="21.4 273.69 22.79 275.67 27.55 272.98 27.55 293.73 30.32 293.73 30.32 270.02 27.55 270.02 21.4 273.69"/>
    <path class="cls-2" d="M43.24,278.86c-1,0-1.87.06-2.62.19v-6.67h9.06v-2.36h-11.84v11.54c1.8-.32,3.32-.49,4.57-.49,1.87,0,3.33.46,4.38,1.39,1.05.92,1.57,2.22,1.57,3.89s-.49,3.02-1.46,3.95c-.97.94-2.32,1.4-4.05,1.4-1.85,0-3.56-.54-5.13-1.61l-1.09,1.61c1.92,1.65,4.19,2.47,6.82,2.47,2,0,3.72-.62,5.17-1.87,1.77-1.52,2.66-3.52,2.66-5.99,0-2.25-.69-4.03-2.06-5.35-1.47-1.4-3.47-2.1-5.99-2.1Z"/>
    <path class="cls-2" d="M8.25,262.98c-5.2,5.62-7.81,12.67-7.81,21.13s2.6,15.49,7.81,21.18l1.56-1.09c-4.55-5.59-6.82-12.28-6.82-20.09s2.27-14.45,6.82-20.04l-1.56-1.09Z"/>
    <path class="cls-2" d="M106.52,264.07c4.54,5.59,6.82,12.27,6.82,20.04s-2.27,14.5-6.82,20.09l1.56,1.09c5.2-5.69,7.81-12.75,7.81-21.18s-2.6-15.51-7.81-21.13l-1.56,1.09Z"/>
    <path class="cls-2" d="M169.11,273.23c.33-.31.49-.71.49-1.2,0-.45-.16-.84-.49-1.17-.33-.33-.74-.49-1.22-.49s-.9.16-1.25.49c-.35.33-.52.72-.52,1.17,0,.49.17.88.52,1.2.35.31.76.47,1.25.47s.89-.16,1.22-.47Z"/>
    <path class="cls-2" d="M163.02,273.23c.33-.31.49-.71.49-1.2,0-.45-.17-.84-.49-1.17-.33-.33-.74-.49-1.22-.49s-.9.16-1.25.49c-.35.33-.52.72-.52,1.17.03.49.22.88.55,1.2.33.31.74.47,1.22.47s.89-.16,1.22-.47Z"/>
    <path class="cls-2" d="M170.43,280.78c-1.39-1.56-3.16-2.34-5.31-2.34-2.01,0-3.73.73-5.15,2.19-1.42,1.46-2.13,3.26-2.13,5.41,0,1.39.36,2.69,1.09,3.9.73,1.21,1.77,2.17,3.12,2.86h-7.18c-1.01,0-1.77-.25-2.29-.76-.52-.5-.92-1.36-1.2-2.58l-.99-3.9c-1.04-4.06-3.21-6.09-6.51-6.09-1.91,0-3.59.85-5.05,2.55-1.46,1.7-2.19,3.71-2.19,6.04v.42c-1.8.24-3.11.9-3.9,1.98-.8,1.08-1.2,2.72-1.2,4.95v12.7l2.39-.57v-12.13c0-1.56.23-2.68.7-3.36.47-.68,1.29-1.08,2.47-1.22,1.11,2.91,3.61,4.37,7.49,4.37,1.98,0,4.09-.5,6.35-1.51.96.99,2.24,1.49,3.84,1.5,0,0,0,0,.02,0h7.75c3.09,0,5.52-.71,7.29-2.13,1.77-1.42,2.65-3.56,2.65-6.4,0-2.36-.7-4.32-2.08-5.88ZM144.57,292.8c-3.82,0-5.73-1.6-5.73-4.79,0-1.63.49-3.06,1.46-4.3.97-1.23,2.15-1.85,3.54-1.85,2.22,0,3.73,1.53,4.53,4.58l1.15,4.53c.03.07.08.2.13.39.05.19.09.34.13.44-1.87.66-3.61.99-5.2.99ZM165.44,292.59c-1.7-.59-3.01-1.49-3.93-2.71-.92-1.21-1.38-2.46-1.38-3.75,0-1.6.48-2.88,1.43-3.85.95-.97,2.14-1.46,3.57-1.46s2.58.55,3.59,1.64c1.01,1.09,1.51,2.51,1.51,4.24,0,3.33-1.6,5.29-4.79,5.88Z"/>
    <path class="cls-2" d="M193.65,300.3c-.49,0-.89.16-1.22.49-.33.33-.49.72-.49,1.17,0,.48.16.88.49,1.2.33.31.74.47,1.22.47s.9-.16,1.25-.47c.35-.31.52-.71.52-1.2,0-.45-.17-.84-.52-1.17-.35-.33-.76-.49-1.25-.49Z"/>
    <path class="cls-2" d="M193.91,288.06c0,1.8-.31,3.04-.94,3.72-.62.68-1.77,1.01-3.44,1.01h-6.09v-13.32l-2.34.57v14c0,5.27-2.72,7.91-8.17,7.91h-1.2l.42,2.45h.78c6.59,0,10.08-3.07,10.46-9.21h6.25c2.36,0,4.05-.56,5.07-1.69,1.02-1.13,1.54-2.94,1.54-5.44v-9.47l-2.34.62v8.85Z"/>
    <path class="cls-2" d="M218.26,307.48c-.49,0-.9.16-1.25.49-.35.33-.52.72-.52,1.17.03.49.22.88.55,1.2.33.31.74.47,1.22.47s.89-.16,1.22-.47c.33-.31.49-.71.49-1.2,0-.45-.17-.84-.49-1.17-.33-.33-.74-.49-1.22-.49Z"/>
    <path class="cls-2" d="M224.35,307.48c-.49,0-.9.16-1.25.49-.35.33-.52.72-.52,1.17,0,.49.17.88.52,1.2.35.31.76.47,1.25.47s.89-.16,1.22-.47c.33-.31.49-.71.49-1.2,0-.45-.17-.84-.49-1.17-.33-.33-.74-.49-1.22-.49Z"/>
    <path class="cls-2" d="M257.04,288.06c0,1.8-.31,3.04-.94,3.72-.62.68-1.77,1.01-3.44,1.01h-1.09c-2.67,0-4.98-.33-6.92-.99,1.28-.8,2.52-1.61,3.7-2.45l.52-2.39c-3.57-2.81-6.27-4.76-8.09-5.86-1.82-1.09-3.44-1.64-4.87-1.64-1.56,0-3.28.43-5.15,1.3v2.13c1.7-.69,3.23-1.04,4.58-1.04,1.01,0,2.08.26,3.23.78,1.14.52,2.19,1.11,3.15,1.77.95.66,2.56,1.84,4.81,3.54-4.41,3.23-8.61,4.84-12.59,4.84h-2.5l-6.19-1.2v2.29l5.1,1.09c.24,1.11.36,1.84.36,2.19,0,1.46-.81,2.61-2.42,3.46-1.61.85-3.79,1.28-6.53,1.28-7.01,0-10.51-2.64-10.51-7.91,0-1.42.26-3.4.78-5.93h-2.24c-.55,2.53-.83,4.68-.83,6.45,0,6.59,4.11,9.89,12.34,9.89,3.75,0,6.62-.62,8.61-1.85,2-1.23,2.99-2.98,2.99-5.23,0-.73-.09-1.44-.26-2.13h1.3c2.91,0,5.79-.75,8.64-2.24,2.22,1.49,5.22,2.24,9,2.24h1.2c2.36,0,4.05-.56,5.08-1.69,1.02-1.13,1.53-2.94,1.53-5.44v-9.47l-2.34.62v8.85Z"/>
    <path class="cls-2" d="M256.78,300.3c-.49,0-.89.16-1.22.49-.33.33-.49.72-.49,1.17,0,.48.16.88.49,1.2.33.31.74.47,1.22.47s.9-.16,1.25-.47c.35-.31.52-.71.52-1.2,0-.45-.17-.84-.52-1.17-.35-.33-.76-.49-1.25-.49Z"/>
    <path class="cls-2" d="M283.9,288.06c0,1.8-.31,3.04-.94,3.72-.62.68-1.77,1.01-3.43,1.01h-5.72v-13.32l-2.34.57v14c0,5.27-2.72,7.91-8.17,7.91h-1.2l.42,2.45h.78c6.59,0,10.08-3.07,10.46-9.21h5.83c2.36,0,4.06-.56,5.1-1.69,1.04-1.13,1.56-2.94,1.56-5.44v-24.62l-2.34.57v24.04Z"/>
    <polygon class="cls-2" points="293.42 295.2 295.76 295.2 295.76 263.45 293.42 263.97 293.42 295.2"/>
    <path class="cls-2" d="M326.83,300.3c-.49,0-.9.16-1.25.49-.35.33-.52.72-.52,1.17,0,.48.17.88.52,1.2.35.31.76.47,1.25.47s.89-.16,1.22-.47c.33-.31.49-.71.49-1.2,0-.45-.16-.84-.49-1.17-.33-.33-.74-.49-1.22-.49Z"/>
    <path class="cls-2" d="M320.75,300.3c-.49,0-.9.16-1.25.49-.35.33-.52.72-.52,1.17.03.48.22.88.55,1.2.33.31.74.47,1.22.47s.89-.16,1.22-.47.49-.71.49-1.2c0-.45-.17-.84-.49-1.17-.33-.33-.74-.49-1.22-.49Z"/>
    <path class="cls-2" d="M341.49,290.98c-1.58-1.21-2.37-2.72-2.37-4.53,0-1.7.64-3.06,1.93-4.09,1.28-1.02,2.9-1.54,4.84-1.54,1.14,0,2.67.19,4.58.57v-2.19c-1.98-.52-3.56-.78-4.74-.78-2.6,0-4.74.71-6.4,2.13-1.67,1.42-2.5,3.31-2.5,5.67,0,2.88,1.37,5.07,4.11,6.56h-7.65c-1.67,0-2.81-.34-3.43-1.01-.63-.68-.94-1.92-.94-3.72v-9.63l-2.34.57v2.71h-10.67l-1.3.99v11.5c0,5.17-2.67,7.76-8.02,7.76h-1.2l.42,2.45h.78c6.9,0,10.36-3.4,10.36-10.2v-10.05h9.63v3.9c0,2.5.51,4.31,1.54,5.44,1.02,1.13,2.71,1.69,5.07,1.69h19l.36-2.39h-4.74c-2.64,0-4.75-.61-6.32-1.82Z"/>
    <path class="cls-2" d="M345.57,273.23c.35-.31.52-.71.52-1.2,0-.45-.17-.84-.52-1.17-.35-.33-.76-.49-1.25-.49s-.89.16-1.22.49-.49.72-.49,1.17c0,.49.16.88.49,1.2.33.31.74.47,1.22.47s.9-.16,1.25-.47Z"/>
    <path class="cls-2" d="M370.76,305.42c-1.77-1.23-2.66-3.03-2.66-5.39,0-2.19,1.15-4.13,3.44-5.83,2.29-1.7,5.95-3.21,10.98-4.53l.52-2.6c-3.68.94-6.71,2-9.11,3.17-2.81-1.42-4.22-3.51-4.22-6.25,0-1.73.62-3.16,1.87-4.27,1.25-1.11,2.84-1.66,4.79-1.66,1.15,0,2.69.21,4.63.62v-2.24c-2.19-.52-3.77-.78-4.74-.78-2.64,0-4.77.76-6.4,2.29-1.63,1.53-2.45,3.5-2.45,5.93,0,1.53.39,2.95,1.17,4.27.78,1.32,1.86,2.38,3.25,3.18-4.06,2.5-6.09,5.59-6.09,9.26,0,2.88,1.1,5.11,3.31,6.69,2.2,1.58,5.06,2.37,8.56,2.37,1.94,0,4.27-.35,6.97-1.04l.62-2.5c-2.29.76-4.74,1.14-7.34,1.14-2.98,0-5.36-.62-7.13-1.85Z"/>
    <path class="cls-2" d="M437.49,270.86c-.35.33-.52.72-.52,1.17.03.49.22.88.55,1.2.33.31.74.47,1.22.47s.89-.16,1.22-.47c.33-.31.49-.71.49-1.2,0-.45-.16-.84-.49-1.17-.33-.33-.74-.49-1.22-.49s-.9.16-1.25.49Z"/>
    <path class="cls-2" d="M444.82,270.37c-.49,0-.9.16-1.25.49-.35.33-.52.72-.52,1.17,0,.49.17.88.52,1.2.35.31.76.47,1.25.47s.89-.16,1.22-.47c.33-.31.49-.71.49-1.2,0-.45-.17-.84-.49-1.17-.33-.33-.74-.49-1.22-.49Z"/>
    <path class="cls-2" d="M456.9,288.06c0,1.8-.31,3.04-.94,3.72-.62.68-1.77,1.01-3.44,1.01h-.68c-3.05,0-5.45-.12-7.18-.36,2.81-1.84,4.22-4.04,4.22-6.61,0-2.12-.67-3.88-2-5.28-1.34-1.4-3.06-2.11-5.18-2.11s-3.72.72-5.13,2.16c-1.41,1.44-2.11,3.13-2.11,5.07,0,2.74,1.44,4.98,4.32,6.71-1.62.28-4.04.42-7.25.42-2.01,0-3.93-.31-5.76-.94.94-1.35,1.4-3.05,1.4-5.1,0-2.6-.8-4.64-2.39-6.11-1.6-1.47-3.5-2.21-5.73-2.21-1.67,0-3.4.36-5.2,1.09-1.8.73-4.63,2.19-8.48,4.37v-20.45l-2.34.52v28.83h-5.67c-1.67,0-2.81-.34-3.44-1.01-.63-.68-.94-1.92-.94-3.72v-24.62l-2.34.57v24.04c0,2.5.51,4.31,1.53,5.44,1.02,1.13,2.72,1.69,5.08,1.69h20.56c2.67,0,4.77-.55,6.3-1.67,2.24,1.1,4.7,1.65,7.38,1.66,0,0,0,0,0,0,.01,0,.02,0,.03,0,0,0,.01,0,.02,0,0,0,0,0,0,0,4.34,0,7.71-.47,10.09-1.4,2.49.93,5.87,1.4,10.14,1.4,0,0,0,0,0,0h.78c2.36,0,4.06-.56,5.1-1.69,1.04-1.13,1.56-2.94,1.56-5.44v-24.62l-2.34.57v24.04ZM417.87,292.8h-12.49v-6.45c4.48-2.4,7.48-3.91,9-4.55,1.53-.64,2.98-.96,4.37-.96,1.7,0,3.15.53,4.35,1.59,1.2,1.06,1.8,2.51,1.8,4.35,0,4.03-2.34,6.04-7.03,6.04ZM438.16,289.5c-.94-1.02-1.41-2.21-1.41-3.56,0-1.46.44-2.67,1.33-3.64.88-.97,2.06-1.46,3.51-1.46s2.62.48,3.59,1.43c.97.96,1.46,2.21,1.46,3.77,0,1.14-.42,2.23-1.25,3.25-.83,1.03-1.98,1.88-3.43,2.58-1.6-.55-2.86-1.35-3.8-2.37Z"/>
    <polygon class="cls-2" points="466.42 295.2 468.77 295.2 468.77 263.45 466.42 263.97 466.42 295.2"/>
    <path class="cls-2" d="M489.74,267.01c-.35.33-.52.72-.52,1.17.03.49.22.89.55,1.2.33.31.74.47,1.22.47s.89-.16,1.22-.47c.33-.31.49-.71.49-1.2,0-.45-.17-.84-.49-1.17-.33-.33-.74-.49-1.22-.49s-.9.17-1.25.49Z"/>
    <path class="cls-2" d="M495.83,267.01c-.35.33-.52.72-.52,1.17,0,.49.17.89.52,1.2.35.31.76.47,1.25.47s.89-.16,1.22-.47c.33-.31.49-.71.49-1.2,0-.45-.16-.84-.49-1.17-.33-.33-.74-.49-1.22-.49s-.9.17-1.25.49Z"/>
    <path class="cls-2" d="M507.02,300.3c-.49,0-.9.16-1.25.49-.35.33-.52.72-.52,1.17.03.48.22.88.55,1.2.33.31.74.47,1.22.47s.89-.16,1.22-.47c.33-.31.49-.71.49-1.2,0-.45-.16-.84-.49-1.17-.33-.33-.74-.49-1.22-.49Z"/>
    <path class="cls-2" d="M513.11,300.3c-.49,0-.9.16-1.25.49-.35.33-.52.72-.52,1.17,0,.48.17.88.52,1.2.35.31.76.47,1.25.47s.89-.16,1.22-.47c.33-.31.49-.71.49-1.2,0-.45-.16-.84-.49-1.17-.33-.33-.74-.49-1.22-.49Z"/>
    <path class="cls-2" d="M544.18,272.45c-.49,0-.89.17-1.22.49-.33.33-.49.72-.49,1.17,0,.49.16.89.49,1.2.33.31.74.47,1.22.47s.9-.16,1.25-.47c.35-.31.52-.71.52-1.2,0-.45-.17-.84-.52-1.17-.35-.33-.76-.49-1.25-.49Z"/>
    <path class="cls-2" d="M561.59,275.31c.33-.31.49-.71.49-1.2,0-.45-.17-.84-.49-1.17-.33-.33-.74-.49-1.22-.49s-.9.17-1.25.49c-.35.33-.52.72-.52,1.17,0,.49.17.89.52,1.2.35.31.76.47,1.25.47s.89-.16,1.22-.47Z"/>
    <path class="cls-2" d="M553.06,275.31c.33.31.74.47,1.22.47s.89-.16,1.22-.47c.33-.31.49-.71.49-1.2,0-.45-.17-.84-.49-1.17-.33-.33-.74-.49-1.22-.49s-.9.17-1.25.49c-.35.33-.52.72-.52,1.17.03.49.22.89.55,1.2Z"/>
    <path class="cls-2" d="M568.75,288.06c0,1.8-.31,3.04-.94,3.72-.62.68-1.77,1.01-3.43,1.01h-.99c-1.91,0-3.21-.34-3.9-1.01-.69-.68-1.04-1.92-1.04-3.72v-7.44l-2.34.57v6.87c0,1.8-.31,3.04-.94,3.72-.62.68-1.79,1.01-3.49,1.01h-1.3c-1.94,0-3.26-.33-3.96-.99-.69-.66-1.04-1.91-1.04-3.75v-7.44l-2.34.57v6.87c0,1.8-.31,3.04-.94,3.72-.62.68-1.77,1.01-3.44,1.01h-1.09c-1.01,0-1.77-.25-2.29-.76-.52-.5-.92-1.36-1.2-2.58l-.94-3.9c-1.11-4.06-3.3-6.09-6.56-6.09-1.91,0-3.59.85-5.05,2.55-1.46,1.7-2.19,3.71-2.19,6.04,0,1.49.36,2.83,1.09,4.01-1.39.49-2.74.73-4.06.73h-.26c-1.91,0-3.21-.34-3.9-1.01-.69-.68-1.04-1.92-1.04-3.72v-7.44l-2.34.57v6.87c0,1.8-.31,3.04-.94,3.72-.62.68-1.79,1.01-3.49,1.01h-1.93c-1.67,0-2.81-.34-3.44-1.01-.63-.68-.94-1.92-.94-3.72v-13.43l-2.34.57v2.29c-7.18,2.85-10.77,6.26-10.77,10.25,0,1.94.64,3.42,1.93,4.42,1.28,1.01,3.02,1.51,5.2,1.51,1.56,0,3.09-.31,4.58-.94,1.01,1.63,2.9,2.45,5.67,2.45h2.03c2.81,0,4.75-.94,5.83-2.81.9,1.87,2.86,2.81,5.88,2.81h.26c2.05,0,3.96-.49,5.72-1.46,1.39.97,3.14,1.46,5.26,1.46,1.94,0,4.04-.5,6.3-1.51.97,1.01,2.27,1.51,3.9,1.51h1.15c2.71,0,4.58-.9,5.62-2.71.94,1.8,2.95,2.71,6.04,2.71h1.3c2.81,0,4.75-.94,5.83-2.81.9,1.87,2.86,2.81,5.88,2.81h1.04c2.36,0,4.06-.56,5.1-1.69,1.04-1.13,1.56-2.94,1.56-5.44v-24.62l-2.34.57v24.04ZM492.19,291.29c-1.53,0-2.74-.32-3.64-.96-.9-.64-1.35-1.54-1.35-2.68,0-2.92,2.86-5.54,8.59-7.86v8.27c0,.94.09,1.84.26,2.71-1.08.35-2.36.52-3.85.52ZM527.27,292.8c-3.82,0-5.72-1.6-5.72-4.79,0-1.63.49-3.06,1.46-4.3.97-1.23,2.17-1.85,3.59-1.85,2.22,0,3.71,1.53,4.48,4.58l1.2,4.53c.07.28.16.54.26.78-1.8.69-3.56,1.04-5.26,1.04Z"/>
    <path class="cls-2" d="M597.9,307.48c-.49,0-.9.16-1.25.49-.35.33-.52.72-.52,1.17,0,.49.17.88.52,1.2.35.31.76.47,1.25.47s.89-.16,1.22-.47c.33-.31.49-.71.49-1.2,0-.45-.17-.84-.49-1.17-.33-.33-.74-.49-1.22-.49Z"/>
    <path class="cls-2" d="M591.81,307.48c-.49,0-.9.16-1.25.49-.35.33-.52.72-.52,1.17.03.49.22.88.55,1.2.33.31.74.47,1.22.47s.89-.16,1.22-.47c.33-.31.49-.71.49-1.2,0-.45-.17-.84-.49-1.17-.33-.33-.74-.49-1.22-.49Z"/>
    <path class="cls-2" d="M610.96,273.7c.35-.31.52-.71.52-1.2,0-.45-.17-.84-.52-1.17-.35-.33-.76-.49-1.25-.49s-.89.16-1.22.49c-.33.33-.49.72-.49,1.17,0,.49.16.88.49,1.2.33.31.74.47,1.22.47s.9-.16,1.25-.47Z"/>
    <path class="cls-2" d="M637.82,278.44c-1.67,0-3.4.36-5.2,1.09-1.8.73-4.63,2.19-8.48,4.37v-20.45l-2.34.52v28.83h-5c-3.3,0-4.94-1.67-4.94-5v-7.08l-1.25-1.25h-.99c-3.64.07-6.65.78-9.03,2.13-2.38,1.35-3.57,3.18-3.57,5.47,0,1.56,1.02,3.21,3.07,4.94l1.46,1.2c1.04.87,1.77,1.56,2.19,2.08.42.52.62,1.13.62,1.82,0,1.35-.85,2.49-2.55,3.41-1.7.92-3.99,1.4-6.87,1.43-2.74,0-4.91-.68-6.51-2.03-1.6-1.35-2.39-3.33-2.39-5.94,0-1.25.28-3.23.83-5.93h-2.24c-.59,2.74-.87,4.95-.83,6.61.03,3.19,1.02,5.62,2.94,7.29,1.93,1.67,4.62,2.5,8.09,2.5,3.61-.03,6.49-.74,8.64-2.11,2.15-1.37,3.23-3.11,3.23-5.23,0-.97-.25-1.83-.75-2.58-.5-.75-1.36-1.64-2.58-2.68l-1.61-1.41c-1.01-.8-1.67-1.45-2-1.95-.33-.5-.49-1.03-.49-1.59,0-1.53.99-2.74,2.97-3.64,1.98-.9,4.41-1.34,7.29-1.3v5.83c0,4.93,2.43,7.39,7.29,7.39h19.78c3.05,0,5.38-.74,6.97-2.21,1.6-1.47,2.39-3.55,2.39-6.22s-.8-4.64-2.39-6.11c-1.6-1.47-3.5-2.21-5.72-2.21ZM636.62,292.8h-12.49v-6.45c4.48-2.4,7.48-3.91,9-4.55,1.53-.64,2.98-.96,4.37-.96,1.7,0,3.15.53,4.35,1.59,1.2,1.06,1.8,2.51,1.8,4.35,0,4.03-2.34,6.04-7.03,6.04Z"/>
    <path class="cls-2" d="M672.9,288.06c0,1.8-.31,3.04-.94,3.72-.62.68-1.77,1.01-3.44,1.01h-4.37v-4.63c0-2.71-.63-4.83-1.9-6.38-1.27-1.54-3.01-2.32-5.23-2.32-1.91,0-3.57.78-5,2.34-1.42,1.56-2.13,3.43-2.13,5.62,0,2.43.76,4.33,2.29,5.7,1.53,1.37,3.64,2.05,6.35,2.05h3.33c-.28,4.58-3.07,6.87-8.38,6.87h-1.82l.37,2.34h1.67c3.23,0,5.73-.79,7.52-2.37,1.79-1.58,2.77-3.86,2.94-6.84h4.42c2.36,0,4.06-.56,5.1-1.69,1.04-1.13,1.56-2.94,1.56-5.44v-24.62l-2.34.57v24.04ZM661.86,292.85h-3.02c-2.01,0-3.63-.47-4.84-1.41-1.21-.94-1.82-2.32-1.82-4.16,0-1.56.47-2.85,1.41-3.88.94-1.02,2.06-1.53,3.38-1.53,1.46,0,2.64.58,3.54,1.74.9,1.16,1.35,2.68,1.35,4.55v4.68Z"/>
    <polygon class="cls-2" points="682.42 295.2 684.76 295.2 684.76 263.45 682.42 263.97 682.42 295.2"/>
    <path class="cls-2" d="M706.1,274.22c.35-.31.52-.71.52-1.2,0-.45-.17-.84-.52-1.17-.35-.33-.76-.49-1.25-.49s-.89.17-1.22.49c-.33.33-.49.72-.49,1.17,0,.49.16.89.49,1.2.33.31.74.47,1.22.47s.9-.16,1.25-.47Z"/>
    <path class="cls-2" d="M725.23,280.52c-2.2-1.8-5.7-3.4-10.49-4.79l14.73-10.57v-3.17l-16.45,12.33v3.23c4.79,1.42,8.19,2.86,10.2,4.32,2.01,1.46,3.02,3.17,3.02,5.15,0,1.87-.69,3.31-2.06,4.29-1.37.99-3.25,1.48-5.65,1.48h-12.44v-13.32l-2.34.57v14c0,5.27-2.72,7.91-8.17,7.91h-1.2l.42,2.45h.78c6.59,0,10.08-3.07,10.46-9.21h12.49c3.05,0,5.48-.71,7.29-2.13,1.8-1.42,2.71-3.42,2.71-5.98s-1.1-4.75-3.3-6.56Z"/>
    <path class="cls-2" d="M771.58,288.06c0,1.8-.31,3.04-.94,3.72-.62.68-1.77,1.01-3.44,1.01h-.73c-1.01,0-1.77-.25-2.29-.76-.52-.5-.92-1.36-1.2-2.58l-.94-3.9c-1.11-4.06-3.3-6.09-6.56-6.09-1.91,0-3.59.85-5.05,2.55-1.46,1.7-2.19,3.71-2.19,6.04,0,1.49.36,2.83,1.09,4.01-1.39.49-2.74.73-4.06.73h-5v-13.32l-2.34.57v14c0,5.27-2.72,7.91-8.17,7.91h-1.2l.42,2.45h.78c6.59,0,10.08-3.07,10.46-9.21h5.05c2.05,0,3.96-.49,5.72-1.46,1.39.97,3.14,1.46,5.26,1.46,1.94,0,4.04-.5,6.3-1.51.97,1.01,2.27,1.51,3.9,1.51h.78c2.36,0,4.06-.56,5.1-1.69,1.04-1.13,1.56-2.94,1.56-5.44v-24.62l-2.34.57v24.04ZM756.17,292.8c-3.82,0-5.72-1.6-5.72-4.79,0-1.63.49-3.06,1.46-4.3.97-1.23,2.17-1.85,3.59-1.85,2.22,0,3.71,1.53,4.48,4.58l1.2,4.53c.07.28.16.54.26.78-1.8.69-3.56,1.04-5.26,1.04Z"/>
    <path class="cls-2" d="M788.44,300.3c-.49,0-.89.16-1.22.49-.33.33-.49.72-.49,1.17,0,.48.16.88.49,1.2.33.31.74.47,1.22.47s.9-.16,1.25-.47c.35-.31.52-.71.52-1.2,0-.45-.17-.84-.52-1.17-.35-.33-.76-.49-1.25-.49Z"/>
    <path class="cls-2" d="M793.9,288.06c0,1.8-.31,3.04-.94,3.72-.62.68-1.77,1.01-3.44,1.01h-1.72c-1.67,0-2.81-.34-3.44-1.01-.63-.68-.94-1.92-.94-3.72v-24.62l-2.34.57v24.04c0,2.5.51,4.31,1.53,5.44,1.02,1.13,2.72,1.69,5.08,1.69h1.93c2.36,0,4.05-.56,5.07-1.69,1.02-1.13,1.54-2.94,1.54-5.44v-9.47l-2.34.62v8.85Z"/>
    <path class="cls-2" d="M818.45,269.38c.33-.31.49-.71.49-1.2,0-.45-.17-.84-.49-1.17-.33-.33-.74-.49-1.22-.49s-.9.17-1.25.49c-.35.33-.52.72-.52,1.17.03.49.22.89.55,1.2.33.31.74.47,1.22.47s.89-.16,1.22-.47Z"/>
    <path class="cls-2" d="M823.31,269.85c.49,0,.89-.16,1.22-.47.33-.31.49-.71.49-1.2,0-.45-.17-.84-.49-1.17-.33-.33-.74-.49-1.22-.49s-.9.17-1.25.49c-.35.33-.52.72-.52,1.17,0,.49.17.89.52,1.2.35.31.76.47,1.25.47Z"/>
    <path class="cls-2" d="M853.03,300.3c-.49,0-.89.16-1.22.49-.33.33-.49.72-.49,1.17,0,.48.16.88.49,1.2.33.31.74.47,1.22.47s.9-.16,1.25-.47c.35-.31.52-.71.52-1.2,0-.45-.17-.84-.52-1.17-.35-.33-.76-.49-1.25-.49Z"/>
    <path class="cls-2" d="M911.95,279.48c-3.54,0-5.8,2.34-6.77,7.03l-.57,2.91c-.45,2.26-1.94,3.38-4.48,3.38-1.84,0-3.11-.45-3.8-1.35-.69-.9-1.04-2.34-1.04-4.32v-7.65l-2.34.57v8.02c0,3.12-1.42,4.68-4.27,4.68-1.49,0-2.7-.42-3.62-1.25-.92-.83-1.38-1.98-1.38-3.44v-7.44l-2.34.52v6.92c0,3.12-1.54,4.68-4.63,4.68-1.63,0-2.89-.41-3.77-1.22-.89-.81-1.33-1.97-1.33-3.46v-6.35l-2.34.57v5.78c0,1.84-.35,3.09-1.04,3.75-.69.66-2.01.99-3.95.99-2.81,0-5.15-.35-7.03-1.04.83-.48,2.03-1.28,3.59-2.39l.52-2.39c-3.61-2.84-6.31-4.8-8.09-5.88-1.79-1.08-3.41-1.61-4.87-1.61-1.56,0-3.26.43-5.1,1.3v2.13c1.7-.69,3.21-1.04,4.53-1.04,1.01,0,2.09.27,3.25.81,1.16.54,2.22,1.14,3.18,1.8.95.66,2.54,1.84,4.76,3.54-4.44,3.19-8.64,4.79-12.59,4.79h-5.83c-1.67,0-2.81-.34-3.43-1.01-.62-.68-.94-1.92-.94-3.72v-24.62l-2.34.57v24.04c0,1.53.19,2.83.57,3.9-1.67.56-3.37.83-5.1.83h-.62c-1.67,0-2.81-.34-3.43-1.01-.63-.68-.94-1.92-.94-3.72v-13.43l-2.34.57v2.29c-7.18,2.85-10.77,6.26-10.77,10.25,0,1.94.64,3.42,1.93,4.42,1.28,1.01,3.02,1.51,5.2,1.51,1.56,0,3.09-.31,4.58-.94,1.01,1.63,2.9,2.45,5.67,2.45h.73c2.36,0,4.46-.49,6.3-1.46,1.01.97,2.62,1.46,4.84,1.46h5.93c2.88,0,5.79-.76,8.74-2.29,2.29,1.53,5.33,2.29,9.11,2.29,3.26,0,5.45-1.06,6.56-3.17,1.08,2.12,3.14,3.17,6.19,3.17,2.81,0,4.77-1.11,5.88-3.33,1.07,2.22,3.04,3.33,5.88,3.33s4.67-1.01,5.67-3.02c1.04,2.01,2.93,3.02,5.67,3.02,2.12,0,3.75-.61,4.89-1.82,3.23,1.21,7.08,1.82,11.55,1.82l1.56-1.72c.35-2.22.52-3.83.52-4.84-.07-2.88-.68-5.13-1.82-6.74-1.14-1.61-2.78-2.42-4.89-2.42ZM818.42,291.29c-1.53,0-2.74-.32-3.64-.96-.9-.64-1.35-1.54-1.35-2.68,0-2.92,2.86-5.54,8.59-7.86v8.27c0,.94.09,1.84.26,2.71-1.08.35-2.36.52-3.85.52ZM916.16,292.85c-3.54,0-6.82-.49-9.84-1.46.14-.31.23-.61.26-.88l.68-3.38c.73-3.5,2.27-5.26,4.63-5.26,1.42,0,2.54.61,3.36,1.82.81,1.21,1.22,2.86,1.22,4.94,0,1.18-.1,2.59-.31,4.22Z"/>
    <path class="cls-2" d="M63.91,269.57c-2.4,0-4.37,1.06-5.92,3.18-1.72,2.32-2.58,5.38-2.58,9.17,0,3.4.65,6.19,1.95,8.39,1.55,2.57,3.73,3.86,6.55,3.86,2.45,0,4.42-1,5.92-3,1.72-2.25,2.59-5.33,2.59-9.25,0-3.27-.67-6.04-2.02-8.31-1.6-2.7-3.76-4.05-6.48-4.05ZM67.96,289.06c-1,1.79-2.36,2.68-4.08,2.68s-2.96-.82-3.93-2.47c-1.05-1.8-1.57-4.32-1.57-7.57,0-3.05.49-5.43,1.46-7.15.97-1.72,2.32-2.58,4.05-2.58s2.96.79,3.93,2.36c1.1,1.72,1.65,4.18,1.65,7.38s-.5,5.57-1.5,7.36Z"/>
    <path class="cls-2" d="M89.16,270.02h-2.92l-10.64,16.29v2.36h10.82v5.06h2.73v-5.06h4.34v-2.36h-4.34v-16.29ZM86.42,286.31h-8.05l8.05-12.47v12.47Z"/>
  </g>
</svg>